<svg width="241" height="83" viewBox="0 0 241 83" fill="none" xmlns="http://www.w3.org/2000/svg">
<path d="M130.676 69.0932C127.946 66.7435 125.31 64.2349 122.77 61.5676C120.293 58.8368 117.975 56.0425 115.816 53.1847C113.72 50.3269 111.783 47.4373 110.005 44.516C108.29 41.5311 106.829 38.6098 105.623 35.752C103.464 38.1018 101.304 40.4833 99.1451 42.8965C97.0493 45.2463 95.1759 47.6278 93.5247 50.0411C91.8735 52.3909 90.5399 54.7724 89.5237 57.1856C88.4441 59.5354 87.9043 61.8852 87.9043 64.2349C87.9043 67.0292 88.3806 69.4425 89.3332 71.4747C90.2223 73.4435 91.429 75.0629 92.9531 76.333C94.4773 77.6032 96.2237 78.524 98.1925 79.0956C100.161 79.6672 102.193 79.9529 104.289 79.9529C108.481 79.9529 112.926 78.9686 117.626 76.9999C122.325 75.0311 126.675 72.3956 130.676 69.0932ZM118.864 12.6036C118.864 10.3809 118.356 8.79321 117.34 7.84061C116.387 6.8245 115.339 6.31644 114.196 6.31644C113.244 6.31644 112.228 6.63397 111.148 7.26905C110.132 7.90412 109.179 8.82497 108.29 10.0316C107.465 11.1747 106.766 12.5719 106.194 14.2231C105.623 15.8743 105.337 17.6842 105.337 19.6529C105.337 23.2728 106.004 27.115 107.337 31.1795C108.925 29.5283 110.418 27.9089 111.815 26.3212C113.212 24.7335 114.419 23.1776 115.435 21.6534C116.514 20.0657 117.34 18.5416 117.911 17.0809C118.547 15.5567 118.864 14.0643 118.864 12.6036ZM155.539 82.1439C155.539 82.3345 155.412 82.525 155.158 82.7155C154.904 82.906 154.523 83.0013 154.015 83.0013C150.205 81.7947 146.458 80.1117 142.774 77.9525C139.091 75.7297 135.503 73.1577 132.01 70.2364C129.597 72.0781 127.088 73.761 124.484 75.2852C121.881 76.8093 119.213 78.1112 116.483 79.1909C113.815 80.2705 111.116 81.0961 108.385 81.6676C105.718 82.2392 103.146 82.525 100.669 82.525C98.256 82.525 95.9697 82.1757 93.8105 81.4771C91.6512 80.842 89.7778 79.8577 88.1901 78.524C86.6024 77.1269 85.364 75.4122 84.4749 73.38C83.5223 71.3477 83.046 68.9662 83.046 66.2354C83.046 63.3141 83.7128 60.4563 85.0465 57.6619C86.3801 54.8041 88.0948 52.0098 90.1906 49.279C92.2863 46.5482 94.6043 43.8809 97.1446 41.2771C99.7484 38.6733 102.289 36.133 104.765 33.6563C102.924 28.7027 102.003 24.2254 102.003 20.2245C102.003 17.8747 102.416 15.7155 103.241 13.7468C104.13 11.778 105.242 10.0951 106.575 8.69795C107.909 7.3008 109.37 6.22118 110.957 5.45909C112.609 4.6335 114.165 4.2207 115.625 4.2207C117.34 4.2207 118.896 4.79227 120.293 5.9354C121.69 7.01501 122.389 8.82497 122.389 11.3653C122.389 12.9529 121.976 14.6041 121.15 16.3188C120.388 18.0335 119.34 19.8117 118.007 21.6534C116.737 23.4316 115.212 25.3051 113.434 27.2738C111.719 29.179 109.91 31.1477 108.004 33.1799C110.1 38.9591 113.212 44.8335 117.34 50.8032C121.531 56.7093 126.612 62.2345 132.582 67.3785C135.82 64.4572 138.424 61.2501 140.393 57.7572C142.362 54.2643 143.346 50.6127 143.346 46.8022C143.346 45.5321 143.156 44.2619 142.774 42.9918C142.457 41.6582 141.79 40.261 140.774 38.8003C140.774 38.6733 140.965 38.5463 141.346 38.4193C141.727 38.2288 142.076 38.1335 142.393 38.1335C143.283 38.1335 143.981 38.451 144.489 39.0861C145.061 39.6577 145.474 40.3563 145.728 41.1818C146.045 42.0074 146.236 42.8648 146.299 43.7539C146.426 44.5795 146.49 45.2463 146.49 45.7544C146.49 49.9458 145.315 54.0103 142.965 57.9477C140.679 61.8217 137.694 65.3781 134.01 68.6169C140.171 73.888 147.125 78.1747 154.873 81.4771C155.317 81.7311 155.539 81.9534 155.539 82.1439Z" fill="#D0D0D0"/>
<path d="M19.1964 48.0838C19.1964 46.0666 19.0686 44.391 18.813 43.0571C18.5893 41.7231 18.2698 41.0562 17.8544 41.0562C17.5988 41.0562 17.3592 41.2514 17.1355 41.6418C16.9119 41.9997 16.7201 42.5203 16.5604 43.2035C16.4326 43.8542 16.3208 44.6351 16.2249 45.546C16.161 46.4245 16.129 47.3843 16.129 48.4254C16.129 50.2799 16.2569 52.2808 16.5125 54.4282C16.7681 56.543 17.2154 58.5927 17.8544 60.5773C18.3017 58.4951 18.6372 56.364 18.8609 54.1842C19.0846 51.9718 19.1964 49.9383 19.1964 48.0838ZM39.2779 25.9273C39.2779 26.0899 39.214 26.2201 39.0862 26.3177C38.9584 26.4153 38.7987 26.5292 38.6069 26.6593C37.6484 27.2449 36.8656 28.0583 36.2585 29.0994C35.6514 30.1406 35.1562 31.2793 34.7728 32.5157C34.4213 33.752 34.1817 35.0209 34.0539 36.3223C33.926 37.5912 33.8621 38.7624 33.8621 39.8361C33.8621 40.5844 33.8941 41.5117 33.958 42.6179C34.0538 43.6915 34.1497 44.8791 34.2456 46.1805C34.3734 47.4819 34.4692 48.8646 34.5331 50.3287C34.629 51.7603 34.6769 53.2244 34.6769 54.721C34.6769 56.8358 34.5491 58.8855 34.2935 60.8702C34.0698 62.8548 33.6065 64.628 32.9036 66.1897C32.2326 67.7514 31.29 69.004 30.0759 69.9475C28.8617 70.891 27.2801 71.3628 25.3311 71.3628C24.4364 71.3628 23.5897 71.1839 22.7909 70.826C22.0241 70.5006 21.3052 70.0289 20.6342 69.4107C19.9952 68.7925 19.4041 68.0767 18.8609 67.2634C18.3497 66.45 17.8864 65.5552 17.471 64.5792C17.0556 65.7179 16.5604 66.7753 15.9853 67.7514C15.4421 68.7274 14.835 69.5734 14.164 70.2891C13.493 71.0049 12.7582 71.558 11.9594 71.9484C11.1606 72.3389 10.3139 72.5341 9.41923 72.5341C8.04531 72.5341 6.87908 72.1762 5.92053 71.4604C4.99394 70.7446 4.2271 69.8011 3.62002 68.6298C3.01295 67.4911 2.53367 66.1897 2.18221 64.7256C1.86269 63.229 1.62305 61.7161 1.4633 60.1869C1.30354 58.6252 1.19171 57.1123 1.12781 55.6483C1.09585 54.1516 1.0639 52.8339 1.03195 51.6952C0.968048 49.6455 1 47.7096 1.12781 45.8877C1.28756 44.0331 1.4633 42.3738 1.65501 40.9098C1.84672 39.4131 2.03842 38.128 2.23013 37.0543C2.42184 35.9807 2.54965 35.1835 2.61355 34.663C2.6455 34.4678 2.83721 34.3376 3.18868 34.2726C3.5721 34.2075 3.90759 34.175 4.19515 34.175C4.41881 34.175 4.61052 34.2075 4.77028 34.2726C4.93004 34.3051 5.00992 34.4027 5.00992 34.5654C5.00992 34.7606 4.93004 35.1022 4.77028 35.5902C4.61052 36.0457 4.37089 36.9242 4.05137 38.2256C3.92356 38.8112 3.77978 39.6572 3.62002 40.7634C3.49222 41.837 3.36441 43.0571 3.23661 44.4236C3.14075 45.7901 3.06087 47.2541 2.99697 48.8158C2.93307 50.345 2.90112 51.8416 2.90112 53.3057C2.90112 54.4444 2.94904 55.6971 3.0449 57.0635C3.14075 58.3975 3.30051 59.7314 3.52417 61.0654C3.74783 62.3668 4.05137 63.6357 4.43479 64.872C4.81821 66.1083 5.2815 67.1983 5.82468 68.1418C6.39981 69.0853 7.07079 69.8336 7.83763 70.3867C8.60446 70.9724 9.49911 71.2652 10.5216 71.2652C11.2884 71.2652 11.9913 71.07 12.6304 70.6796C13.2694 70.2891 13.8605 69.736 14.4037 69.0203C14.9468 68.337 15.4261 67.5236 15.8415 66.5801C16.2888 65.6366 16.6882 64.6117 17.0397 63.5055C16.3048 61.4558 15.7616 59.2759 15.4101 56.9659C15.0587 54.6559 14.8829 52.5249 14.8829 50.5727C14.8829 49.1412 14.9309 47.7259 15.0267 46.3269C15.1545 44.9279 15.3303 43.6753 15.5539 42.5691C15.7776 41.4629 16.0651 40.5681 16.4166 39.8849C16.7681 39.2017 17.1834 38.86 17.6627 38.86C18.0461 38.86 18.3816 39.1041 18.6692 39.5921C18.9887 40.0801 19.2443 40.7471 19.436 41.593C19.6597 42.4389 19.8194 43.4475 19.9153 44.6188C20.0431 45.7575 20.107 46.9939 20.107 48.3278C20.107 50.4751 19.9632 52.7363 19.6757 55.1114C19.3881 57.454 18.9408 59.7477 18.3337 61.9926C18.7491 63.1314 19.2283 64.1888 19.7715 65.1648C20.3147 66.1083 20.9218 66.938 21.5928 67.6538C22.2957 68.3696 23.0625 68.9227 23.8933 69.3131C24.756 69.736 25.6985 69.9475 26.721 69.9475C28.1268 69.9475 29.2771 69.5896 30.1717 68.8738C31.0664 68.1906 31.7693 67.2471 32.2805 66.0433C32.7918 64.8069 33.1432 63.3917 33.3349 61.7974C33.5266 60.1707 33.6225 58.43 33.6225 56.5755C33.6225 54.9162 33.5586 53.2081 33.4308 51.4512C33.3349 49.6943 33.2231 47.9537 33.0953 46.2293C32.9675 44.4724 32.8397 42.7805 32.7119 41.1538C32.616 39.4945 32.5681 37.9653 32.5681 36.5663C32.5681 35.5577 32.7119 34.3864 32.9994 33.0525C33.319 31.7185 33.7343 30.4659 34.2456 29.2947C34.7887 28.0909 35.3958 27.0823 36.0668 26.2689C36.7697 25.423 37.5046 25 38.2715 25C38.4951 25 38.7188 25.1139 38.9424 25.3416C39.1661 25.5368 39.2779 25.732 39.2779 25.9273Z" fill="black"/>
<path d="M54.2428 58.3324C54.2428 57.8444 54.163 57.454 54.0032 57.1611C53.8434 56.8358 53.5878 56.6731 53.2364 56.6731C52.6932 56.6731 52.2778 56.9497 51.9903 57.5028C51.7027 58.0233 51.5749 58.6903 51.6068 59.5037C51.7027 61.2281 52.0062 62.6759 52.5175 63.8471C53.0606 63.0988 53.476 62.2529 53.7636 61.3094C54.0831 60.3659 54.2428 59.3735 54.2428 58.3324ZM67.1832 58.2836C66.9595 58.7716 66.7199 59.2759 66.4643 59.7965C66.2087 60.2845 65.9211 60.7726 65.6016 61.2606C63.9721 63.7333 62.3266 65.5715 60.6651 66.7753C59.0036 67.9791 57.454 68.581 56.0162 68.581C54.1949 68.581 52.805 67.7026 51.8465 65.9457C50.7282 67.0844 49.4661 67.9466 48.0602 68.5322C46.6863 69.1179 45.3284 69.4107 43.9864 69.4107C43.1876 69.4107 42.4208 69.2968 41.6859 69.0691C40.983 68.8413 40.3759 68.4997 39.8647 68.0442C39.3215 67.5562 38.8901 66.9543 38.5706 66.2385C38.2511 65.4902 38.0913 64.628 38.0913 63.6519C38.0913 62.4807 38.3629 61.2931 38.9061 60.0893C39.4173 58.853 40.1362 57.7468 41.0628 56.7707C42.0214 55.7621 43.1397 54.9325 44.4177 54.2818C45.6958 53.6311 47.0857 53.3057 48.5874 53.3057C49.8016 53.3057 50.7442 53.4847 51.4151 53.8425C52.0861 54.1679 52.4216 54.477 52.4216 54.7698C52.4216 54.8999 52.3577 54.9975 52.2299 55.0626C52.1021 55.1277 51.9903 55.1602 51.8944 55.1602C51.8625 55.1277 51.8305 55.1114 51.7986 55.1114H51.7506C51.3672 54.7535 50.9359 54.477 50.4566 54.2818C49.9773 54.054 49.2744 53.9401 48.3478 53.9401C47.1017 53.9401 45.9674 54.2167 44.9449 54.7698C43.9544 55.2904 43.1077 55.9899 42.4048 56.8683C41.7019 57.7142 41.1587 58.6578 40.7753 59.6989C40.3919 60.74 40.2001 61.7649 40.2001 62.7735C40.2001 64.7256 40.6475 66.1409 41.5421 67.0193C42.4368 67.8978 43.5551 68.337 44.897 68.337C45.9834 68.337 47.1177 68.0605 48.2999 67.5074C49.4821 66.9543 50.5365 66.1734 51.4631 65.1648C50.9518 63.9936 50.6962 62.4644 50.6962 60.5773C50.6962 59.341 50.9199 58.2673 51.3672 57.3564C51.8145 56.4454 52.4536 55.9899 53.2843 55.9899C54.4346 55.9899 55.0097 56.6731 55.0097 58.0396C55.0097 59.4061 54.818 60.6424 54.4346 61.7486C54.0511 62.8223 53.5399 63.7983 52.9009 64.6768C53.7955 66.3686 55.0416 67.2145 56.6392 67.2145C57.8534 67.2145 59.1474 66.694 60.5213 65.6529C61.9272 64.6117 63.3011 63.0988 64.6431 61.1142C64.9626 60.6262 65.2501 60.1219 65.5057 59.6013C65.7614 59.0807 66.017 58.5602 66.2726 58.0396L67.1832 58.2836Z" fill="black"/>
<path d="M73.8402 36.4687C73.8402 34.6142 73.5367 33.1338 72.9296 32.0276C72.3545 30.8889 71.38 30.3195 70.006 30.3195C69.5268 30.3195 69.0795 30.4822 68.6641 30.8076C68.2807 31.1004 67.9452 31.5071 67.6576 32.0276C67.37 32.5482 67.1464 33.1501 66.9866 33.8333C66.8269 34.5166 66.747 35.2486 66.747 36.0295C66.747 38.1768 66.763 40.1289 66.7949 41.8858C66.8269 43.6427 66.8588 45.302 66.8908 46.8637C66.9547 48.4254 67.0186 49.9383 67.0825 51.4024C67.1464 52.8665 67.2103 54.3631 67.2742 55.8923C68.2008 54.6234 69.0635 53.1756 69.8623 51.5488C70.6611 49.8895 71.348 48.1977 71.9231 46.4733C72.5302 44.7164 72.9935 42.9758 73.313 41.2514C73.6645 39.527 73.8402 37.9328 73.8402 36.4687ZM91.1899 58.2836C90.9662 58.7716 90.7266 59.2759 90.471 59.7965C90.2473 60.3171 89.9598 60.8051 89.6083 61.2606C87.851 63.7983 85.854 65.7993 83.6174 67.2634C81.3808 68.6949 79.1602 69.4107 76.9555 69.4107C75.5816 69.4107 74.2716 69.0853 73.0255 68.4346C71.7794 67.8165 70.677 66.8079 69.7185 65.4088C69.5907 65.2462 69.5268 65.0998 69.5268 64.9696C69.5268 64.6768 69.7185 64.5304 70.1019 64.5304C70.1339 64.5304 70.2457 64.5629 70.4374 64.628C70.693 64.628 70.9806 64.7256 71.3001 64.9208C71.6516 65.0835 72.1468 65.1648 72.7858 65.1648C73.7763 65.1648 74.7029 64.9859 75.5656 64.628C76.4283 64.2701 77.1632 63.8146 77.7703 63.2615C78.4093 62.6759 78.9045 62.0252 79.256 61.3094C79.6075 60.5611 79.7832 59.7965 79.7832 59.0157C79.7832 58.0396 79.5276 57.1937 79.0164 56.4779C78.5371 55.7621 77.7064 55.4042 76.5242 55.4042C75.31 55.4042 74.1917 55.8435 73.1692 56.7219C72.1468 57.5678 71.2202 58.609 70.3895 59.8453C69.5907 61.0491 68.9037 62.3343 68.3286 63.7007C67.7535 65.0347 67.3221 66.206 67.0346 67.2145C66.8748 67.7676 66.731 68.1093 66.6032 68.2394C66.4754 68.3696 66.3316 68.4346 66.1719 68.4346C65.8204 68.4346 65.6606 68.093 65.6926 67.4098C65.6926 67.1169 65.7086 66.7591 65.7405 66.3361C65.7725 65.9131 65.8044 65.4576 65.8364 64.9696C65.8364 64.4816 65.8524 63.9936 65.8843 63.5055C65.9163 62.985 65.9322 62.5132 65.9322 62.0902C65.9322 60.6262 65.9003 58.9506 65.8364 57.0635C65.7725 55.144 65.6926 53.1756 65.5967 51.1584C65.5009 49.1087 65.421 47.0752 65.3571 45.058C65.2932 43.0408 65.2612 41.1863 65.2612 39.4945C65.2612 38.1605 65.3571 36.8754 65.5488 35.639C65.7405 34.3702 66.0441 33.264 66.4594 32.3204C66.8748 31.3444 67.402 30.5798 68.041 30.0267C68.6801 29.4411 69.4309 29.1482 70.2936 29.1482C71.1883 29.1482 71.9391 29.3109 72.5462 29.6363C73.1852 29.9291 73.6965 30.3683 74.0799 30.954C74.4633 31.5071 74.7349 32.1903 74.8946 33.0037C75.0863 33.7845 75.1822 34.6467 75.1822 35.5902C75.1822 37.217 74.9585 39.0064 74.5112 40.9586C74.0639 42.8781 73.4728 44.814 72.7379 46.7661C72.003 48.7182 71.1563 50.6053 70.1978 52.4273C69.2712 54.2167 68.3126 55.7784 67.3221 57.1123C67.386 58.0884 67.418 59.097 67.418 60.1381C67.4499 61.1793 67.4979 62.2855 67.5618 63.4567C68.3605 61.6998 69.2392 60.1869 70.1978 58.918C70.6131 58.3649 71.0764 57.8281 71.5876 57.3076C72.1308 56.7545 72.69 56.2664 73.2651 55.8435C73.8722 55.4205 74.5112 55.0789 75.1822 54.8186C75.8851 54.5583 76.62 54.4282 77.3869 54.4282C78.601 54.4282 79.6554 54.7373 80.5501 55.3554C81.4447 55.9736 81.892 56.9659 81.892 58.3324C81.892 59.6338 81.5725 60.74 80.9335 61.651C80.3264 62.562 79.5596 63.3266 78.633 63.9448C77.7064 64.5304 76.7159 64.9696 75.6615 65.2624C74.6071 65.5553 73.6485 65.7342 72.7858 65.7993C72.7219 65.7993 72.69 65.8155 72.69 65.8481C72.69 65.9131 72.7379 66.0107 72.8338 66.1409C73.4728 66.8892 74.1917 67.426 74.9905 67.7514C75.7893 68.0767 76.62 68.2394 77.4827 68.2394C78.5371 68.2394 79.6075 68.0442 80.6938 67.6538C81.7802 67.2308 82.8186 66.694 83.8091 66.0433C84.7996 65.36 85.7102 64.5955 86.541 63.7495C87.4037 62.8711 88.1066 61.9926 88.6498 61.1142C88.9693 60.6262 89.2568 60.1219 89.5125 59.6013C89.7681 59.0807 90.0237 58.5602 90.2793 58.0396L91.1899 58.2836Z" fill="black"/>
<path d="M97.9465 55.2578C97.9465 54.3794 97.7229 53.6636 97.2755 53.1105C96.8602 52.5249 96.1732 52.232 95.2147 52.232C94.7035 52.232 94.2402 52.3947 93.8248 52.7201C93.4094 53.0454 93.0579 53.4847 92.7704 54.0378C92.4828 54.5583 92.2592 55.1765 92.0994 55.8923C91.9396 56.608 91.8598 57.3564 91.8598 58.1372C91.8598 59.3735 91.9876 60.4797 92.2432 61.4558C92.5307 62.3993 92.9301 63.229 93.4414 63.9448C94.1124 63.3917 94.7194 62.7572 95.2626 62.0414C95.8058 61.3257 96.2691 60.5773 96.6525 59.7965C97.0679 59.0157 97.3874 58.2348 97.611 57.454C97.8347 56.6731 97.9465 55.9411 97.9465 55.2578ZM110.072 58.2836C109.848 58.7716 109.609 59.2759 109.353 59.7965C109.13 60.2845 108.842 60.7726 108.491 61.2606C106.925 63.5381 105.136 65.2624 103.123 66.4337C101.142 67.5724 99.2406 68.1418 97.4193 68.1418C96.3969 68.1418 95.4383 67.9629 94.5437 67.605C93.681 67.2471 92.9301 66.7103 92.2911 65.9945C91.6521 65.2787 91.1409 64.384 90.7574 63.3103C90.374 62.2366 90.1823 60.9678 90.1823 59.5037C90.1823 58.5276 90.3261 57.5516 90.6137 56.5755C90.9012 55.5994 91.2846 54.721 91.7639 53.9401C92.2751 53.1593 92.8503 52.5249 93.4893 52.0368C94.1603 51.5488 94.8632 51.3048 95.5981 51.3048C96.7803 51.3048 97.643 51.6627 98.1862 52.3785C98.7293 53.0617 99.0009 53.9401 99.0009 55.0138C99.0009 56.4779 98.5536 58.0721 97.659 59.7965C96.7963 61.4883 95.5502 63.0663 93.9206 64.5304C95.1348 65.9294 96.7004 66.6289 98.6175 66.6289C100.055 66.6289 101.557 66.1897 103.123 65.3112C104.688 64.4002 106.158 63.0012 107.532 61.1142C107.883 60.6587 108.171 60.1707 108.395 59.6501C108.65 59.097 108.906 58.5602 109.162 58.0396L110.072 58.2836Z" fill="black"/>
<path d="M151.594 45.9853C150.412 45.9853 149.278 46.1154 148.192 46.3757C147.137 46.636 146.195 46.9451 145.364 47.3029C144.565 47.6608 143.91 48.035 143.399 48.4254C142.92 48.8158 142.68 49.1575 142.68 49.4503C142.68 49.8407 143.127 50.0359 144.022 50.0359C145.556 50.0359 147.009 49.6618 148.383 48.9134C149.789 48.1651 151.051 47.1891 152.17 45.9853H151.594ZM165.541 53.3057C165.541 54.8999 165.094 56.6243 164.199 58.4788C163.337 60.3333 162.138 62.1716 160.605 63.9936C159.071 65.8155 157.25 67.5724 155.141 69.2643C153.032 70.9561 150.764 72.4527 148.335 73.7541C145.907 75.0556 143.351 76.0804 140.667 76.8287C137.983 77.6096 135.299 78 132.615 78C132.168 78 131.673 77.9837 131.129 77.9512C130.618 77.9187 130.139 77.8373 129.692 77.7072C129.244 77.6096 128.861 77.4306 128.541 77.1703C128.222 76.9426 128.062 76.6173 128.062 76.1943C128.062 75.6087 128.35 75.0393 128.925 74.4862C129.5 73.9656 130.235 73.4776 131.129 73.0221C132.024 72.5666 132.999 72.1599 134.053 71.802C135.107 71.4441 136.114 71.1351 137.072 70.8748C138.063 70.6145 138.926 70.403 139.66 70.2403C140.395 70.1102 140.891 70.0451 141.146 70.0451C141.338 70.0451 141.482 70.0939 141.578 70.1915C141.673 70.2891 141.721 70.3867 141.721 70.4843C141.721 70.647 141.641 70.7284 141.482 70.7284H140.859C140.028 70.7284 138.974 70.891 137.695 71.2164C136.417 71.5417 135.171 71.9484 133.957 72.4365C132.743 72.9245 131.705 73.4613 130.842 74.047C129.979 74.6651 129.548 75.2345 129.548 75.7551C129.548 76.113 129.66 76.3895 129.883 76.5847C130.139 76.8125 130.442 76.9914 130.794 77.1215C131.145 77.2517 131.513 77.333 131.896 77.3656C132.28 77.4306 132.615 77.4632 132.903 77.4632C135.171 77.4632 137.488 77.0727 139.852 76.2919C142.249 75.5111 144.565 74.4699 146.802 73.1685C149.07 71.8996 151.195 70.4193 153.176 68.7274C155.189 67.0681 156.946 65.3438 158.448 63.5543C159.95 61.7324 161.132 59.9266 161.995 58.1372C162.857 56.3152 163.289 54.6234 163.289 53.0617C163.289 51.1421 162.506 49.5479 160.94 48.279C159.407 46.9776 156.866 46.2293 153.32 46.0341C151.882 47.4006 150.3 48.5068 148.575 49.3527C146.882 50.1986 145.156 50.6215 143.399 50.6215C142.153 50.6215 141.53 50.3125 141.53 49.6943C141.53 49.3039 141.785 48.8646 142.296 48.3766C142.84 47.856 143.575 47.368 144.501 46.9125C145.46 46.457 146.594 46.0829 147.904 45.7901C149.214 45.4647 150.652 45.302 152.217 45.302H152.793C153.847 44.0331 154.694 42.6504 155.333 41.1538C155.972 39.6246 156.291 38.128 156.291 36.6639C156.291 35.6878 156.116 34.7606 155.764 33.8821C155.445 32.9711 154.901 32.1903 154.135 31.5396C153.4 30.8889 152.425 30.3683 151.211 29.9779C150.029 29.5875 148.591 29.3923 146.898 29.3923C145.747 29.3923 144.15 29.5549 142.105 29.8803C140.092 30.2056 137.903 30.7099 135.539 31.3932C133.206 32.0439 130.826 32.8735 128.398 33.8821C125.969 34.8907 123.765 36.062 121.784 37.3959C119.803 38.7299 118.189 40.2428 116.943 41.9346C115.697 43.6265 115.074 45.4972 115.074 47.547C115.074 47.8072 115.026 48.035 114.93 48.2302C114.834 48.3929 114.738 48.4742 114.642 48.4742C114.515 48.4742 114.419 48.3441 114.355 48.0838C114.259 47.791 114.211 47.3192 114.211 46.6685C114.499 44.5537 115.345 42.6341 116.751 40.9098C118.157 39.1854 119.898 37.6562 121.975 36.3223C124.02 34.9558 126.273 33.7845 128.733 32.8085C131.193 31.8324 133.622 31.0353 136.018 30.4171C138.446 29.7664 140.699 29.2947 142.776 29.0018C144.885 28.6765 146.61 28.5138 147.952 28.5138C149.901 28.5138 151.546 28.709 152.888 29.0994C154.262 29.4573 155.381 29.9616 156.243 30.6123C157.106 31.2305 157.729 31.9788 158.112 32.8573C158.496 33.7357 158.688 34.663 158.688 35.639C158.688 37.2333 158.256 38.8926 157.394 40.6169C156.563 42.3088 155.429 43.8867 153.991 45.3508C156.036 45.4484 157.793 45.725 159.263 46.1805C160.733 46.6034 161.931 47.1728 162.857 47.8886C163.784 48.5718 164.455 49.3852 164.87 50.3287C165.318 51.2397 165.541 52.232 165.541 53.3057ZM140.14 66.1409C140.14 66.5964 140.108 66.9217 140.044 67.1169C139.98 67.3122 139.804 67.4098 139.517 67.4098C138.878 67.4748 138.558 66.8241 138.558 65.4576C138.526 60.9678 138.478 56.8683 138.414 53.1593C138.382 49.4503 138.335 46.2455 138.271 43.5451C138.239 40.8122 138.207 38.6486 138.175 37.0543C138.143 35.4601 138.127 34.5491 138.127 34.3214C138.127 34.0611 138.207 33.8821 138.366 33.7845C138.526 33.6869 138.718 33.6056 138.942 33.5405C139.197 33.5405 139.389 33.6219 139.517 33.7845C139.676 33.9472 139.756 34.1424 139.756 34.3702C139.756 36.973 139.772 39.6572 139.804 42.4227C139.836 45.1556 139.868 47.8886 139.9 50.6215C139.964 53.3545 140.012 56.0387 140.044 58.674C140.108 61.3094 140.14 63.7983 140.14 66.1409Z" fill="black"/>
<path d="M184.171 58.3324C184.171 57.8444 184.091 57.454 183.931 57.1611C183.771 56.8358 183.516 56.6731 183.164 56.6731C182.621 56.6731 182.206 56.9497 181.918 57.5028C181.631 58.0233 181.503 58.6903 181.535 59.5037C181.631 61.2281 181.934 62.6759 182.445 63.8471C182.989 63.0988 183.404 62.2529 183.691 61.3094C184.011 60.3659 184.171 59.3735 184.171 58.3324ZM197.111 58.2836C196.887 58.7716 196.648 59.2759 196.392 59.7965C196.137 60.2845 195.849 60.7726 195.529 61.2606C193.9 63.7333 192.254 65.5715 190.593 66.7753C188.931 67.9791 187.382 68.581 185.944 68.581C184.123 68.581 182.733 67.7026 181.774 65.9457C180.656 67.0844 179.394 67.9466 177.988 68.5322C176.614 69.1179 175.256 69.4107 173.914 69.4107C173.115 69.4107 172.349 69.2968 171.614 69.0691C170.911 68.8413 170.304 68.4997 169.793 68.0442C169.249 67.5562 168.818 66.9543 168.498 66.2385C168.179 65.4902 168.019 64.628 168.019 63.6519C168.019 62.4807 168.291 61.2931 168.834 60.0893C169.345 58.853 170.064 57.7468 170.991 56.7707C171.949 55.7621 173.068 54.9325 174.346 54.2818C175.624 53.6311 177.014 53.3057 178.515 53.3057C179.729 53.3057 180.672 53.4847 181.343 53.8425C182.014 54.1679 182.349 54.477 182.349 54.7698C182.349 54.8999 182.286 54.9975 182.158 55.0626C182.03 55.1277 181.918 55.1602 181.822 55.1602C181.79 55.1277 181.758 55.1114 181.726 55.1114H181.678C181.295 54.7535 180.864 54.477 180.384 54.2818C179.905 54.054 179.202 53.9401 178.276 53.9401C177.03 53.9401 175.895 54.2167 174.873 54.7698C173.882 55.2904 173.036 55.9899 172.333 56.8683C171.63 57.7142 171.087 58.6578 170.703 59.6989C170.32 60.74 170.128 61.7649 170.128 62.7735C170.128 64.7256 170.575 66.1409 171.47 67.0193C172.365 67.8978 173.483 68.337 174.825 68.337C175.911 68.337 177.046 68.0605 178.228 67.5074C179.41 66.9543 180.464 66.1734 181.391 65.1648C180.88 63.9936 180.624 62.4644 180.624 60.5773C180.624 59.341 180.848 58.2673 181.295 57.3564C181.742 56.4454 182.381 55.9899 183.212 55.9899C184.362 55.9899 184.938 56.6731 184.938 58.0396C184.938 59.4061 184.746 60.6424 184.362 61.7486C183.979 62.8223 183.468 63.7983 182.829 64.6768C183.723 66.3686 184.97 67.2145 186.567 67.2145C187.781 67.2145 189.075 66.694 190.449 65.6529C191.855 64.6117 193.229 63.0988 194.571 61.1142C194.89 60.6262 195.178 60.1219 195.434 59.6013C195.689 59.0807 195.945 58.5602 196.2 58.0396L197.111 58.2836Z" fill="black"/>
<path d="M203.768 36.4687C203.768 34.6142 203.465 33.1338 202.857 32.0276C202.282 30.8889 201.308 30.3195 199.934 30.3195C199.455 30.3195 199.007 30.4822 198.592 30.8076C198.209 31.1004 197.873 31.5071 197.585 32.0276C197.298 32.5482 197.074 33.1501 196.914 33.8333C196.755 34.5166 196.675 35.2486 196.675 36.0295C196.675 38.1768 196.691 40.1289 196.723 41.8858C196.755 43.6427 196.787 45.302 196.819 46.8637C196.883 48.4254 196.946 49.9383 197.01 51.4024C197.074 52.8665 197.138 54.3631 197.202 55.8923C198.129 54.6234 198.991 53.1756 199.79 51.5488C200.589 49.8895 201.276 48.1977 201.851 46.4733C202.458 44.7164 202.921 42.9758 203.241 41.2514C203.592 39.527 203.768 37.9328 203.768 36.4687ZM221.118 58.2836C220.894 58.7716 220.654 59.2759 220.399 59.7965C220.175 60.3171 219.888 60.8051 219.536 61.2606C217.779 63.7983 215.782 65.7993 213.545 67.2634C211.309 68.6949 209.088 69.4107 206.883 69.4107C205.509 69.4107 204.199 69.0853 202.953 68.4346C201.707 67.8165 200.605 66.8079 199.646 65.4088C199.519 65.2462 199.455 65.0998 199.455 64.9696C199.455 64.6768 199.646 64.5304 200.03 64.5304C200.062 64.5304 200.174 64.5629 200.365 64.628C200.621 64.628 200.908 64.7256 201.228 64.9208C201.579 65.0835 202.075 65.1648 202.714 65.1648C203.704 65.1648 204.631 64.9859 205.493 64.628C206.356 64.2701 207.091 63.8146 207.698 63.2615C208.337 62.6759 208.832 62.0252 209.184 61.3094C209.535 60.5611 209.711 59.7965 209.711 59.0157C209.711 58.0396 209.455 57.1937 208.944 56.4779C208.465 55.7621 207.634 55.4042 206.452 55.4042C205.238 55.4042 204.12 55.8435 203.097 56.7219C202.075 57.5678 201.148 58.609 200.317 59.8453C199.519 61.0491 198.832 62.3343 198.256 63.7007C197.681 65.0347 197.25 66.206 196.962 67.2145C196.803 67.7676 196.659 68.1093 196.531 68.2394C196.403 68.3696 196.259 68.4346 196.1 68.4346C195.748 68.4346 195.589 68.093 195.62 67.4098C195.62 67.1169 195.636 66.7591 195.668 66.3361C195.7 65.9131 195.732 65.4576 195.764 64.9696C195.764 64.4816 195.78 63.9936 195.812 63.5055C195.844 62.985 195.86 62.5132 195.86 62.0902C195.86 60.6262 195.828 58.9506 195.764 57.0635C195.7 55.144 195.62 53.1756 195.525 51.1584C195.429 49.1087 195.349 47.0752 195.285 45.058C195.221 43.0408 195.189 41.1863 195.189 39.4945C195.189 38.1605 195.285 36.8754 195.477 35.639C195.668 34.3702 195.972 33.264 196.387 32.3204C196.803 31.3444 197.33 30.5798 197.969 30.0267C198.608 29.4411 199.359 29.1482 200.221 29.1482C201.116 29.1482 201.867 29.3109 202.474 29.6363C203.113 29.9291 203.624 30.3683 204.008 30.954C204.391 31.5071 204.663 32.1903 204.822 33.0037C205.014 33.7845 205.11 34.6467 205.11 35.5902C205.11 37.217 204.886 39.0064 204.439 40.9586C203.992 42.8781 203.401 44.814 202.666 46.7661C201.931 48.7182 201.084 50.6053 200.126 52.4273C199.199 54.2167 198.24 55.7784 197.25 57.1123C197.314 58.0884 197.346 59.097 197.346 60.1381C197.378 61.1793 197.426 62.2855 197.49 63.4567C198.288 61.6998 199.167 60.1869 200.126 58.918C200.541 58.3649 201.004 57.8281 201.516 57.3076C202.059 56.7545 202.618 56.2664 203.193 55.8435C203.8 55.4205 204.439 55.0789 205.11 54.8186C205.813 54.5583 206.548 54.4282 207.315 54.4282C208.529 54.4282 209.583 54.7373 210.478 55.3554C211.373 55.9736 211.82 56.9659 211.82 58.3324C211.82 59.6338 211.5 60.74 210.861 61.651C210.254 62.562 209.487 63.3266 208.561 63.9448C207.634 64.5304 206.644 64.9696 205.589 65.2624C204.535 65.5553 203.576 65.7342 202.714 65.7993C202.65 65.7993 202.618 65.8155 202.618 65.8481C202.618 65.9131 202.666 66.0107 202.762 66.1409C203.401 66.8892 204.12 67.426 204.918 67.7514C205.717 68.0767 206.548 68.2394 207.411 68.2394C208.465 68.2394 209.535 68.0442 210.622 67.6538C211.708 67.2308 212.746 66.694 213.737 66.0433C214.727 65.36 215.638 64.5955 216.469 63.7495C217.332 62.8711 218.034 61.9926 218.578 61.1142C218.897 60.6262 219.185 60.1219 219.44 59.6013C219.696 59.0807 219.952 58.5602 220.207 58.0396L221.118 58.2836Z" fill="black"/>
<path d="M227.874 55.2578C227.874 54.3794 227.651 53.6636 227.203 53.1105C226.788 52.5249 226.101 52.232 225.143 52.232C224.631 52.232 224.168 52.3947 223.753 52.7201C223.337 53.0454 222.986 53.4847 222.698 54.0378C222.411 54.5583 222.187 55.1765 222.027 55.8923C221.868 56.608 221.788 57.3564 221.788 58.1372C221.788 59.3735 221.915 60.4797 222.171 61.4558C222.459 62.3993 222.858 63.229 223.369 63.9448C224.04 63.3917 224.647 62.7572 225.19 62.0414C225.734 61.3257 226.197 60.5773 226.58 59.7965C226.996 59.0157 227.315 58.2348 227.539 57.454C227.763 56.6731 227.874 55.9411 227.874 55.2578ZM240 58.2836C239.776 58.7716 239.537 59.2759 239.281 59.7965C239.057 60.2845 238.77 60.7726 238.418 61.2606C236.853 63.5381 235.063 65.2624 233.051 66.4337C231.07 67.5724 229.168 68.1418 227.347 68.1418C226.325 68.1418 225.366 67.9629 224.472 67.605C223.609 67.2471 222.858 66.7103 222.219 65.9945C221.58 65.2787 221.069 64.384 220.685 63.3103C220.302 62.2366 220.11 60.9678 220.11 59.5037C220.11 58.5276 220.254 57.5516 220.542 56.5755C220.829 55.5994 221.213 54.721 221.692 53.9401C222.203 53.1593 222.778 52.5249 223.417 52.0368C224.088 51.5488 224.791 51.3048 225.526 51.3048C226.708 51.3048 227.571 51.6627 228.114 52.3785C228.657 53.0617 228.929 53.9401 228.929 55.0138C228.929 56.4779 228.481 58.0721 227.587 59.7965C226.724 61.4883 225.478 63.0663 223.849 64.5304C225.063 65.9294 226.628 66.6289 228.545 66.6289C229.983 66.6289 231.485 66.1897 233.051 65.3112C234.616 64.4002 236.086 63.0012 237.46 61.1142C237.811 60.6587 238.099 60.1707 238.323 59.6501C238.578 59.097 238.834 58.5602 239.089 58.0396L240 58.2836Z" fill="black"/>
</svg>
