<svg width="16" height="16" viewBox="0 0 16 16" fill="none" xmlns="http://www.w3.org/2000/svg">
<path fill-rule="evenodd" clip-rule="evenodd" d="M8 0.875C6.11033 0.875 4.29806 1.62567 2.96186 2.96186C1.62567 4.29806 0.875 6.11033 0.875 8C0.875 9.88967 1.62567 11.7019 2.96186 13.0381C4.29806 14.3743 6.11033 15.125 8 15.125C9.88967 15.125 11.7019 14.3743 13.0381 13.0381C14.3743 11.7019 15.125 9.88967 15.125 8C15.125 6.11033 14.3743 4.29806 13.0381 2.96186C11.7019 1.62567 9.88967 0.875 8 0.875ZM3.125 8C3.125 6.70707 3.63861 5.46709 4.55285 4.55285C5.46709 3.63861 6.70707 3.125 8 3.125C9.29293 3.125 10.5329 3.63861 11.4471 4.55285C12.3614 5.46709 12.875 6.70707 12.875 8C12.875 9.29293 12.3614 10.5329 11.4471 11.4471C10.5329 12.3614 9.29293 12.875 8 12.875C6.70707 12.875 5.46709 12.3614 4.55285 11.4471C3.63861 10.5329 3.125 9.29293 3.125 8Z" fill="#FFF9F4"/>
</svg>
